<svg width="53" height="74" viewBox="0 0 53 74" fill="none" xmlns="http://www.w3.org/2000/svg">
<path d="M50.4219 73H51.4219V72V61.0781V60.0781H50.4219H23.4048L37.3193 45.4069L37.3259 45.4L37.3323 45.3929C41.6116 40.7047 44.6797 36.5486 46.4882 32.9316C48.2965 29.3149 49.2188 25.7251 49.2188 22.1719C49.2188 15.7873 47.1823 10.7213 43.0147 7.11961C38.9001 3.5368 33.1826 1.8125 26 1.8125C21.2601 1.8125 16.9844 2.8293 13.1976 4.88525C9.41614 6.907 6.46602 9.72275 4.37003 13.3252L4.37001 13.3252L4.36662 13.3311C2.30689 16.9275 1.28125 20.8971 1.28125 25.2188V26.2188H2.28125H15.875H16.875V25.2188C16.875 21.9535 17.7032 19.4348 19.2669 17.5637C20.8367 15.6912 22.9643 14.7344 25.7656 14.7344C28.3909 14.7344 30.2758 15.5325 31.5755 17.0179L31.5755 17.0179L31.5815 17.0246C32.9035 18.5086 33.625 20.6192 33.625 23.4844C33.625 25.4775 32.9658 27.6456 31.5625 30.0043L31.5624 30.0043L31.5577 30.0124C30.171 32.3939 27.9901 35.2237 24.9852 38.5079L2.91136 62.0345L2.64062 62.3231V62.7188V72V73H3.64062H50.4219Z" fill="black" stroke="#BDBDBD" stroke-width="2"/>
</svg>
