<svg width="52" height="75" viewBox="0 0 52 75" fill="none" xmlns="http://www.w3.org/2000/svg">
<path d="M17.4219 30.875H16.4219V31.875V42.4688V43.4688H17.4219H24.5938C28.2121 43.4688 30.7392 44.2925 32.3589 45.7637C33.9603 47.2183 34.8438 49.4615 34.8438 52.6875C34.8438 55.2579 34.0126 57.2459 32.3967 58.7525C30.8195 60.2209 28.5753 61.0156 25.5312 61.0156C22.9272 61.0156 20.7884 60.2696 19.052 58.8145C17.3765 57.3849 16.5469 55.5729 16.5469 53.2969V52.2969H15.5469H2H1V53.2969C1 59.4822 3.27479 64.5203 7.82856 68.3151L7.8313 68.3174C12.3897 72.0887 18.2083 73.9375 25.2031 73.9375C32.652 73.9375 38.7416 72.065 43.3714 68.224C48.0527 64.3663 50.3906 59.2171 50.3906 52.875C50.3906 48.9484 49.3898 45.495 47.3553 42.5585C45.696 40.1262 43.3394 38.2245 40.3344 36.8307C42.6935 35.4509 44.6731 33.6666 46.2623 31.4782C48.2875 28.6894 49.3125 25.6102 49.3125 22.2656C49.3125 15.953 47.1675 10.9055 42.8168 7.25134C38.4884 3.58459 32.5755 1.8125 25.2031 1.8125C20.9157 1.8125 16.9591 2.63534 13.3481 4.29444L13.345 4.29589C9.7607 5.9577 6.926 8.28849 4.8767 11.2963L4.87534 11.2983C2.85124 14.2847 1.84375 17.6696 1.84375 21.4219V22.4219H2.84375H16.3906H17.3906V21.4219C17.3906 19.4379 18.1326 17.883 19.642 16.6701L19.6421 16.6702L19.6504 16.6634C21.1958 15.3939 23.1335 14.7344 25.5312 14.7344C28.2273 14.7344 30.2048 15.4486 31.5954 16.759L31.5954 16.7591L31.6024 16.7655C33.0101 18.067 33.7656 19.916 33.7656 22.4531C33.7656 25.0909 33.0042 27.1055 31.5612 28.603C30.1634 30.0536 27.9272 30.875 24.6406 30.875H17.4219Z" fill="black" stroke="#BDBDBD" stroke-width="2"/>
</svg>
