<svg width="52" height="74" viewBox="0 0 52 74" fill="none" xmlns="http://www.w3.org/2000/svg">
<path d="M3.66263 37.3247L3.56362 38.197L4.4157 38.4081L15.197 41.08L15.7217 41.2101L16.118 40.8422L17.4126 39.64C19.1914 38.1471 21.5492 37.3594 24.5781 37.3594C27.8728 37.3594 30.2809 38.3226 31.9531 40.1319C33.6329 41.9493 34.5469 44.6396 34.5469 48.3594C34.5469 52.2677 33.7422 55.1505 32.2631 57.1335C30.8199 59.038 28.7741 60.0156 25.9844 60.0156C23.4386 60.0156 21.4618 59.2994 19.9609 57.9383C18.4907 56.5463 17.5861 54.5746 17.3233 51.9172L17.2341 51.0156H16.3281H2.92188H1.8891L1.92239 52.0479C2.05304 56.0978 3.18342 59.735 5.3255 62.9317L5.32948 62.9375C7.49822 66.1249 10.436 68.597 14.1157 70.3554L14.1222 70.3585C17.794 72.0806 21.7681 72.9375 26.0312 72.9375C30.8861 72.9375 35.1518 71.9561 38.7941 69.9545L38.8001 69.9512C42.434 67.9215 45.2281 65.0798 47.1631 61.4403C49.1239 57.7798 50.0938 53.6617 50.0938 49.1094C50.0938 41.693 48.2054 35.7816 44.3004 31.5126C40.3875 27.235 35.0039 25.1406 28.2812 25.1406C25.1125 25.1406 22.0884 25.7699 19.217 27.0254L20.5947 15.0469H46.8438H47.8438V14.0469V2.75V1.75H46.8438H8.59375H7.70084L7.60013 2.63721L3.66263 37.3247Z" fill="black" stroke="#BDBDBD" stroke-width="2"/>
</svg>
