<svg width="52" height="74" viewBox="0 0 52 74" fill="none" xmlns="http://www.w3.org/2000/svg">
<path d="M40.3906 2.04688V1.04688H39.3906L37.1406 1.04686L37.1361 1.04689C30.0754 1.07883 23.818 2.69406 18.3955 5.9215C13.0029 9.11855 8.85698 13.6576 5.96298 19.5099L5.96199 19.5119C3.10238 25.3275 1.6875 32.0143 1.6875 39.5469V44.4219C1.6875 52.9455 3.94186 59.8734 8.54662 65.0987L8.54895 65.1013C13.1917 70.3326 19.2852 72.9375 26.7344 72.9375C31.327 72.9375 35.4692 71.901 39.1347 69.8069C42.8306 67.7134 45.6837 64.7782 47.6787 61.0184C49.7005 57.2671 50.7031 53.0872 50.7031 48.5C50.7031 41.3923 48.9075 35.5546 45.2251 31.083C41.5187 26.5825 36.5064 24.3438 30.2969 24.3438C25.5972 24.3438 21.5173 25.625 18.0989 28.1976C19.111 24.257 21.0539 21.1257 23.9037 18.7544C27.4355 15.8414 32.1321 14.2955 38.0858 14.2031H39.3906H40.3906V13.2031V2.04688ZM20.7527 38.7986L20.7528 38.7987L20.7632 38.7919C22.3773 37.7442 24.1715 37.2188 26.1719 37.2188C28.9474 37.2188 31.0896 38.234 32.7014 40.2627C34.3385 42.3231 35.2031 45.0844 35.2031 48.6406C35.2031 52.1291 34.3409 54.8798 32.6973 56.9769L32.6962 56.9783C31.1054 59.0157 29.0529 60.0156 26.4531 60.0156C23.5454 60.0156 21.3578 58.8968 19.7726 56.6457C18.1506 54.3109 17.2812 50.9919 17.2812 46.5781V42.6732C18.044 41.0705 19.1943 39.7829 20.7527 38.7986Z" fill="black" stroke="#BDBDBD" stroke-width="2"/>
</svg>
