<svg width="51" height="75" viewBox="0 0 51 75" fill="none" xmlns="http://www.w3.org/2000/svg">
<path d="M21.9531 50.9219C26.0472 50.9219 29.7235 49.6808 32.9583 47.2272C32.199 51.0085 30.5839 53.9115 28.165 56.0103C25.2064 58.5773 20.9188 60.0516 15.1727 60.3129L12.1875 60.3595L11.2031 60.3749V61.3594V72.6562V73.6704L12.2172 73.6562L15.5453 73.6093L15.5594 73.6091L15.5734 73.6085C26.1621 73.162 34.4596 69.6085 40.3325 62.8596C46.192 56.126 49.0625 46.9284 49.0625 35.3906L49.0625 30.375L49.0625 30.3693C49.0306 24.8137 48.0242 19.8414 46.0181 15.4733C44.0105 11.1018 41.1727 7.71126 37.4939 5.34632C33.8194 2.98416 29.6286 1.8125 24.9531 1.8125C20.4121 1.8125 16.2958 2.90107 12.6301 5.09328C8.96406 7.25431 6.10298 10.3006 4.0521 14.207L4.05065 14.2098C2.03395 18.0806 1.03125 22.3344 1.03125 26.9531C1.03125 34.1577 2.89147 40.0077 6.71512 44.3917L6.71759 44.3945C10.5524 48.7583 15.666 50.9219 21.9531 50.9219ZM30.3296 37.058L30.3295 37.058L30.3219 37.0635C28.9523 38.0496 27.2887 38.5625 25.2812 38.5625C22.4901 38.5625 20.3954 37.5144 18.877 35.4197C17.3381 33.2224 16.5312 30.3772 16.5312 26.8125C16.5312 23.2196 17.3679 20.3256 18.9721 18.0627L18.9755 18.0578C20.565 15.7871 22.5108 14.7344 24.8594 14.7344C27.4504 14.7344 29.4943 15.8235 31.0681 18.0999C32.6584 20.4003 33.5156 23.7337 33.5156 28.2188V33.5503C32.7859 34.8987 31.7315 36.0685 30.3296 37.058Z" fill="black" stroke="#BDBDBD" stroke-width="2"/>
</svg>
