<svg width="88" height="75" viewBox="0 0 88 75" fill="none" xmlns="http://www.w3.org/2000/svg">
<path d="M32.5469 73H33.5469V72V3.65625V2.65625H32.5469H31.0938H30.92L30.7565 2.71483L2.4909 12.8398L1.82812 13.0772V13.7812V24.7969V26.154L3.12435 25.752L18 21.1384V72V73H19H32.5469ZM38.4531 44.4844L38.4532 44.4946C38.5482 53.7762 40.591 61.0591 44.7201 66.204C48.8829 71.391 54.8834 73.9375 62.5625 73.9375C70.3371 73.9375 76.3746 71.3423 80.5068 66.0531C84.6031 60.8098 86.5781 53.3377 86.5781 43.7812L86.5782 31.2188L86.5781 31.2085C86.4831 21.9286 84.441 14.6603 80.3108 9.54548C76.148 4.35882 70.1476 1.8125 62.4688 1.8125C54.7872 1.8125 48.7726 4.37619 44.5799 9.59225L44.5775 9.59526C40.4427 14.7802 38.4531 22.2743 38.4531 31.9219L38.4531 44.4844ZM68.8264 18.1803L68.83 18.1864L68.8337 18.1925C70.2482 20.5122 71.0312 24.3904 71.0312 30V46.2129C70.9689 51.4993 70.2069 55.2611 68.8642 57.6323C67.5957 59.8724 65.5634 61.0156 62.5625 61.0156C59.545 61.0156 57.4587 59.8368 56.1221 57.4951C54.7475 54.9993 54 51.0659 54 45.5625V28.9778C54.0935 23.8183 54.8856 20.2143 56.2412 18.0103C57.5698 15.869 59.5875 14.7812 62.4688 14.7812C65.4345 14.7812 67.4936 15.9228 68.8264 18.1803Z" fill="black" stroke="#BDBDBD" stroke-width="2"/>
</svg>
