<svg width="51" height="75" viewBox="0 0 51 75" fill="none" xmlns="http://www.w3.org/2000/svg">
<path d="M43.0376 68.45L43.0409 68.4472C47.4153 64.7024 49.5781 59.6133 49.5781 53.2969C49.5781 49.3369 48.5606 45.8514 46.494 42.8838C44.7815 40.3985 42.5632 38.3719 39.8555 36.802C42.1621 35.323 44.042 33.4715 45.4805 31.246C47.2502 28.5079 48.125 25.3785 48.125 21.8906C48.125 15.7713 46.0784 10.8404 41.9262 7.21796C37.822 3.57875 32.3132 1.8125 25.5156 1.8125C18.6852 1.8125 13.1585 3.59527 9.05347 7.26903C4.93817 10.9205 2.90625 15.8319 2.90625 21.8906C2.90625 25.3747 3.76342 28.5014 5.49924 31.2387L5.49921 31.2387L5.50391 31.246C6.94133 33.4699 8.81964 35.3204 11.124 36.7989C8.44494 38.3465 6.24385 40.3596 4.53587 42.8389C2.47121 45.836 1.45312 49.3357 1.45312 53.2969C1.45312 59.5866 3.63476 64.6599 8.04002 68.4027C12.4256 72.1288 18.3041 73.9375 25.5625 73.9375C32.8184 73.9375 38.682 72.1457 43.0376 68.45ZM19.2916 45.8882L19.2916 45.8882L19.2977 45.8819C20.7973 44.3278 22.8175 43.5156 25.4688 43.5156C28.1548 43.5156 30.1892 44.3299 31.6866 45.8819C33.1906 47.4406 33.9844 49.5478 33.9844 52.3125C33.9844 55.1529 33.199 57.2504 31.7396 58.7369L31.7395 58.7369L31.733 58.7436C30.3072 60.2233 28.2953 61.0156 25.5625 61.0156C22.7715 61.0156 20.715 60.1948 19.2572 58.656C17.7775 57.0941 17 55.0132 17 52.3125C17 49.5126 17.7958 47.4112 19.2916 45.8882ZM30.7126 16.8263L30.7125 16.8263L30.7189 16.8335C31.9266 18.2022 32.5781 20.0712 32.5781 22.5469C32.5781 25.09 31.9237 27.0285 30.7065 28.4621L30.7064 28.4621L30.6993 28.4706C29.551 29.8538 27.8902 30.5938 25.5625 30.5938C23.2353 30.5938 21.5532 29.8537 20.3717 28.4621C19.1544 27.0285 18.5 25.09 18.5 22.5469C18.5 19.966 19.1573 18.0753 20.3527 16.7471C21.5309 15.4379 23.2049 14.7344 25.5156 14.7344C27.8492 14.7344 29.533 15.4632 30.7126 16.8263Z" fill="black" stroke="#BDBDBD" stroke-width="2"/>
</svg>
